# xmcd
#
# Track frame offsets:
#	150
#	20593
#	36974
#	55666
#	75984
#	96173
#	109808
#	134128
#	152921
#	166306
#
# Disc length: 2471 seconds
#
# Revision: 2
# Processed by: cddbd v1.5.2PL0 Copyright (c) Steve Scherf et al.
# Submitted via: audiograbber 1.83.01
#
DISCID=7d09a50a
DTITLE=Roberto Carlos - Emoções Sertanejas - Volume 1
DYEAR=2010
DGENRE=Country
TTITLE0=Milionário and José Rico - À Distância...
TTITLE1=Cesar Menotti and Fabiano - Proposta
TTITLE2=Nalva Aguiar - As Curvas da Estrada de Santos
TTITLE3=Gian e Giovani - Eu te Amo, Te Amo, Te Amo
TTITLE4=Martinha - Alô
TTITLE5=Bruno e Marrono - Desabafo
TTITLE6=Dominguinhos e Paula Fernandes - Caminhoneiro
TTITLE7=Sérgio Reis - Todas as Manhãs
TTITLE8=Almir Sater - O Quintal do Vizinho
TTITLE9=Elba Ramalho - Esqueça
EXTD=
EXTT0=
EXTT1=
EXTT2=
EXTT3=
EXTT4=
EXTT5=
EXTT6=
EXTT7=
EXTT8=
EXTT9=
PLAYORDER=
